<?xml version="1.0" encoding="UTF-8" standalone="no"?>
<svg
   xmlns:osb="http://www.openswatchbook.org/uri/2009/osb"
   xmlns:dc="http://purl.org/dc/elements/1.1/"
   xmlns:cc="http://creativecommons.org/ns#"
   xmlns:rdf="http://www.w3.org/1999/02/22-rdf-syntax-ns#"
   xmlns:svg="http://www.w3.org/2000/svg"
   xmlns="http://www.w3.org/2000/svg"
   xmlns:sodipodi="http://sodipodi.sourceforge.net/DTD/sodipodi-0.dtd"
   xmlns:inkscape="http://www.inkscape.org/namespaces/inkscape"
   inkscape:export-ydpi="96"
   inkscape:export-xdpi="96"
   inkscape:export-filename="/Users/kristina/Desktop/Other/Logos/hcrystal_ball_logo_green.png"
   sodipodi:docname="hcrystal_ball_logo_white.svg"
   inkscape:version="1.0 (4035a4f, 2020-05-01)"
   width="346mm"
   height="277mm"
   viewBox="0 0 346 277"
   version="1.1"
   id="SVGRoot">
  <defs
     id="defs10">
    <linearGradient
       osb:paint="solid"
       id="linearGradient974">
      <stop
         id="stop972"
         offset="0"
         style="stop-color:#000000;stop-opacity:1;" />
    </linearGradient>
  </defs>
  <sodipodi:namedview
     inkscape:showpageshadow="false"
     showborder="false"
     borderlayer="false"
     inkscape:window-maximized="0"
     inkscape:window-y="23"
     inkscape:window-x="147"
     inkscape:window-height="986"
     inkscape:window-width="1702"
     showgrid="false"
     inkscape:document-rotation="0"
     inkscape:current-layer="layer1"
     inkscape:document-units="mm"
     inkscape:cy="544.54705"
     inkscape:cx="565.92085"
     inkscape:zoom="0.5"
     inkscape:pageshadow="2"
     inkscape:pageopacity="0"
     borderopacity="1"
     bordercolor="#000000"
     pagecolor="#ffffff"
     id="base"
     inkscape:pagecheckerboard="true" />
  <metadata
     id="metadata13">
    <rdf:RDF>
      <cc:Work
         rdf:about="">
        <dc:format>image/svg+xml</dc:format>
        <dc:type
           rdf:resource="http://purl.org/dc/dcmitype/StillImage" />
        <dc:title></dc:title>
      </cc:Work>
    </rdf:RDF>
  </metadata>
  <g
     style="opacity:1"
     id="layer1"
     inkscape:groupmode="layer"
     inkscape:label="Layer 1">
    <text
       xml:space="preserve"
       style="font-style:normal;font-weight:normal;font-size:10.5833px;line-height:1.25;font-family:sans-serif;fill:#000000;fill-opacity:1;stroke:none;stroke-width:0.264583"
       x="187.58958"
       y="138.37708"
       id="text868"><tspan
         sodipodi:role="line"
         id="tspan866"
         x="187.58958"
         y="138.37708"
         style="stroke-width:0.264583" /></text>
    <path
       id="path850"
       style="fill:#ffffff;fill-opacity:1;stroke:#ffffff;stroke-width:0.899953;stroke-miterlimit:4;stroke-dasharray:none;stroke-opacity:1"
       d="m 227.77142,41.489493 a 76.895785,76.904934 0 0 0 -76.63427,76.904507 76.895785,76.904934 0 0 0 76.89651,76.9045 76.895785,76.904934 0 0 0 76.89535,-76.9045 76.895785,76.904934 0 0 0 -76.89535,-76.904507 76.895785,76.904934 0 0 0 -0.26224,0 z m 12.88261,14.324269 A 62.572219,62.579664 0 0 1 303.22682,118.394 62.572219,62.579664 0 0 1 240.65403,180.97309 62.572219,62.579664 0 0 1 178.08239,118.394 62.572219,62.579664 0 0 1 240.65403,55.813762 Z" />
    <path
       id="path850-5"
       style="mix-blend-mode:normal;fill:#ffffff;fill-opacity:1;stroke:#ffffff;stroke-width:1.5;stroke-miterlimit:4;stroke-dasharray:none;stroke-opacity:1"
       d="m 264.74261,197.95567 a 78.154517,77.150662 0 0 1 -37.75876,9.60242 78.154517,77.150662 0 0 1 -36.52581,-8.94447 v 2.13834 a 76.895785,76.904934 0 0 0 36.52581,9.23089 76.895785,76.904934 0 0 0 38.43963,-10.29833 z" />
    <path
       id="path1194-8"
       style="fill:#ffffff;fill-opacity:1;stroke:#ffffff;stroke-width:1;stroke-linecap:round;stroke-linejoin:round;stroke-miterlimit:4;stroke-dasharray:none;stroke-opacity:1"
       d="m 254.23361,73.204637 a 30.84033,30.056022 10.656708 0 0 -3.24681,0.16563 46.260483,45.084022 10.656706 0 1 6.52929,2.898673 24.040563,23.429187 10.65673 0 1 2.25423,-0.102369 24.040563,23.429187 10.65673 0 1 5.93468,0.729267 24.040563,23.429187 10.65673 0 1 17.59813,28.526602 24.040563,23.429187 10.65673 0 1 -1.94371,5.07039 46.260483,45.084022 10.656706 0 1 0.34159,7.17189 30.84033,30.056022 10.656708 0 0 2.7212,-6.9292 30.84033,30.056022 10.656708 0 0 -22.5759,-36.594566 30.84033,30.056022 10.656708 0 0 -7.6127,-0.936321 z m 4.01856,3.468057 a 46.260483,45.084022 10.656706 0 1 22.94852,32.702056 36.060831,35.143764 10.656728 0 0 -22.94852,-32.702056 z" />
    <path
       transform="matrix(0.23269883,0.23123098,-0.19234121,0.27974855,328.79815,-0.98406875)"
       inkscape:randomized="0"
       inkscape:rounded="0.03"
       inkscape:flatsided="false"
       sodipodi:arg2="1.6357455"
       sodipodi:arg1="0.85034733"
       sodipodi:r2="6.918159"
       sodipodi:r1="46.121059"
       sodipodi:cy="61.383331"
       sodipodi:cx="8.4666662"
       sodipodi:sides="4"
       id="path1681"
       style="fill:#ffffff;fill-opacity:1;stroke:none;stroke-width:3.02099;stroke-linecap:round;stroke-linejoin:round;stroke-miterlimit:4;stroke-dasharray:none;stroke-opacity:1"
       sodipodi:type="star"
       d="M 38.893751,96.04375 C 37.957707,96.865468 9.2605786,68.367744 8.0176534,68.286904 6.7747281,68.206063 -25.372034,92.74646 -26.193752,91.810416 -27.01547,90.874373 1.4822532,62.177244 1.5630938,60.934318 1.6439345,59.691393 -22.896463,27.544631 -21.960419,26.722913 -21.024375,25.901195 7.6727539,54.398918 8.9156791,54.479759 10.158604,54.5606 42.305367,30.020202 43.127085,30.956246 43.948803,31.89229 15.451079,60.589419 15.370239,61.832344 15.289398,63.075269 39.829795,95.222032 38.893751,96.04375 Z" />
    <path
       sodipodi:type="star"
       style="fill:#ffffff;fill-opacity:1;stroke:none;stroke-width:1.76607;stroke-linecap:round;stroke-linejoin:round;stroke-miterlimit:4;stroke-dasharray:none;stroke-opacity:1"
       id="path1681-0"
       sodipodi:sides="4"
       sodipodi:cx="8.4666662"
       sodipodi:cy="61.383331"
       sodipodi:r1="46.121059"
       sodipodi:r2="6.918159"
       sodipodi:arg1="0.85034733"
       sodipodi:arg2="1.6357455"
       inkscape:flatsided="false"
       inkscape:rounded="0.03"
       inkscape:randomized="0"
       transform="matrix(0.40282686,0.39084697,-0.33296344,0.47285565,314.91376,11.504419)"
       d="M 38.893751,96.04375 C 37.957707,96.865468 9.2605786,68.367744 8.0176534,68.286904 6.7747281,68.206063 -25.372034,92.74646 -26.193752,91.810416 -27.01547,90.874373 1.4822532,62.177244 1.5630938,60.934318 1.6439345,59.691393 -22.896463,27.544631 -21.960419,26.722913 -21.024375,25.901195 7.6727539,54.398918 8.9156791,54.479759 10.158604,54.5606 42.305367,30.020202 43.127085,30.956246 43.948803,31.89229 15.451079,60.589419 15.370239,61.832344 15.289398,63.075269 39.829795,95.222032 38.893751,96.04375 Z" />
    <path
       sodipodi:type="star"
       style="fill:#ffffff;fill-opacity:1;stroke:none;stroke-width:2.38192;stroke-linecap:round;stroke-linejoin:round;stroke-miterlimit:4;stroke-dasharray:none;stroke-opacity:1"
       id="path1681-4"
       sodipodi:sides="4"
       sodipodi:cx="8.4666662"
       sodipodi:cy="61.383331"
       sodipodi:r1="46.121059"
       sodipodi:r2="6.918159"
       sodipodi:arg1="0.85034733"
       sodipodi:arg2="1.6357455"
       inkscape:flatsided="false"
       inkscape:rounded="0.03"
       inkscape:randomized="0"
       transform="matrix(0.29744384,0.29098953,-0.24585735,0.35204582,340.2097,44.991402)"
       d="M 38.893751,96.04375 C 37.957707,96.865468 9.2605786,68.367744 8.0176534,68.286904 6.7747281,68.206063 -25.372034,92.74646 -26.193752,91.810416 -27.01547,90.874373 1.4822532,62.177244 1.5630938,60.934318 1.6439345,59.691393 -22.896463,27.544631 -21.960419,26.722913 -21.024375,25.901195 7.6727539,54.398918 8.9156791,54.479759 10.158604,54.5606 42.305367,30.020202 43.127085,30.956246 43.948803,31.89229 15.451079,60.589419 15.370239,61.832344 15.289398,63.075269 39.829795,95.222032 38.893751,96.04375 Z" />
    <text
       xml:space="preserve"
       style="font-style:normal;font-variant:normal;font-weight:normal;font-stretch:normal;font-size:54.36950000000000216px;line-height:1.25;font-family:Helvetica;-inkscape-font-specification:'Helvetica, Normal';font-variant-ligatures:normal;font-variant-caps:normal;font-variant-numeric:normal;font-variant-east-asian:normal;fill:#ffffff;fill-opacity:1;stroke:#ffffff;stroke-width:0.264582;stroke-opacity:1;"
       x="-2.6086934"
       y="262.66183"
       id="text860"
       transform="scale(0.99420358,1.0058302)"><tspan
         sodipodi:role="line"
         id="tspan858"
         x="-2.6086934"
         y="262.66183"
         style="font-style:normal;font-variant:normal;font-weight:normal;font-stretch:normal;font-size:54.36950000000000216px;font-family:Helvetica;-inkscape-font-specification:'Helvetica, Normal';font-variant-ligatures:normal;font-variant-caps:normal;font-variant-numeric:normal;font-variant-east-asian:normal;fill:#ffffff;fill-opacity:1;stroke:#ffffff;stroke-width:0.264582;stroke-opacity:1;">HCrystal Ball</tspan></text>
    <path
       d="m 255.87867,179.08126 10.09953,19.68489 v 1.09219 l -2.2349,1.14852 -10.54321,-20.54959 z"
       style="opacity:1;fill:#ffffff;fill-opacity:1;stroke:#ffffff;stroke-width:0.426559;stroke-miterlimit:4;stroke-dasharray:none;stroke-opacity:1"
       id="rect1088-3" />
    <path
       id="rect1088-3-8"
       style="opacity:1;fill:#ffffff;fill-opacity:1;stroke:#ffffff;stroke-width:0.426559;stroke-miterlimit:4;stroke-dasharray:none;stroke-opacity:1"
       d="m 199.08364,179.61043 -10.09953,19.68489 v 1.09219 l 2.2349,1.14852 10.54321,-20.54959 z" />
    <path
       d="M 98.83832,40.955639 V 101.28529 H 1.5744898 V 195.6325 H 39.142222 V 133.16448 H 98.839351 V 195.6325 H 136.37453 V 40.955639 Z"
       style="fill:#ffffff;fill-opacity:1;stroke:none;stroke-width:0.999998;stroke-linecap:round;stroke-linejoin:round;stroke-miterlimit:4;stroke-dasharray:none;stroke-opacity:0.6"
       id="rect878-5-1" />
    <path
       id="rect878-5-1-4-1-4"
       style="fill:#ffffff;fill-opacity:1;stroke:none;stroke-width:0.999999;stroke-linecap:round;stroke-linejoin:round;stroke-miterlimit:4;stroke-dasharray:none;stroke-opacity:0.6"
       d="m 1.57209,40.895938 h 37.56348 v 37.563 H 1.57209 Z" />
  </g>
</svg>
